<svg xmlns="http://www.w3.org/2000/svg" viewBox="0 0 500 500"><g id="freepik--Floor--inject-286"><ellipse id="freepik--floor--inject-286" cx="249.05" cy="301.46" rx="235.1" ry="140.4" style="fill:#f5f5f5"></ellipse></g><g id="freepik--Plants--inject-286"><path d="M67.44,330.24S72.3,311,65.21,296.87,45.56,282,40.74,283.11s-9.21,6.69-2.93,12.95,19.78,19,20.43,27.64Z" style="fill:#407BFF"></path><path d="M67.44,330.24S72.3,311,65.21,296.87,45.56,282,40.74,283.11s-9.21,6.69-2.93,12.95,19.78,19,20.43,27.64Z" style="opacity:0.15"></path><path d="M44.72,286.36c6,3.45,21.18,14.82,20.57,40.62" style="fill:none;stroke:#fff;stroke-linecap:round;stroke-miterlimit:10"></path><path d="M66.47,324.62c1-5-2.49-9.77-10.85-11.1s-7.11-1.14-16-6.87-16.95-4-18.91-.5C18.58,310,25.91,314.4,30.94,319s8,9.34,4.76,14.19c-2.73,4.16-3.26,8.27,3.21,12.29,5.76,3.57,13.63,2.19,14.21,9,.32,3.9,4.91,9.57,11.35,8.2C83.4,353,66.47,324.62,66.47,324.62Z" style="fill:#407BFF"></path><path d="M28.55,306.49c9.91,4.13,35.13,20.7,40.73,49" style="fill:none;stroke:#fff;stroke-linecap:round;stroke-miterlimit:10"></path><path d="M42.55,336.26s9.25-3,18.66-1" style="fill:none;stroke:#fff;stroke-linecap:round;stroke-miterlimit:10"></path></g><g id="freepik--Megaphone--inject-286"><path d="M297.81,76.72,318.12,65v75c0,3.52,4.06,7,4.06,7l-20.31,11.72s-4.06-3.51-4.06-7Z" style="fill:#37474f"></path><path d="M273.12,76.52l8.56,10.91,0,30.24-9.25,24.09,29.48,17c-2.56-2.31-3.85-4.66-4.06-7v-61Z" style="fill:#455a64"></path><polygon points="272.39 141.76 272.39 146.45 301.87 163.47 301.87 158.78 272.39 141.76" style="fill:#407BFF"></polygon><polygon points="301.87 163.47 322.18 151.75 322.18 147.06 301.87 158.78 301.87 163.47" style="fill:#407BFF"></polygon><polygon points="301.87 163.47 322.18 151.75 322.18 147.06 301.87 158.78 301.87 163.47" style="opacity:0.1"></polygon><path d="M296.88,27.39h0c-3.45-2.07-8.26-1.81-13.57,1.25l-.19.12c-10.5,6.06-19,20.8-19,32.93v.22c0,6.28,2.29,10.62,5.95,12.51h0l15.37,9,25.65-47.71Z" style="fill:#f0f0f0"></path><path d="M270.06,74.42h0l15.37,9,8.5-15.81-28.05-16.2a33.21,33.21,0,0,0-1.77,10.23v.22C264.11,68.19,266.4,72.53,270.06,74.42Z" style="fill:#e0e0e0"></path><path d="M330.07,39.06h0c-3.9-2.24-9.15-2.15-15,.7-.61.29-1.23.62-1.86,1s-1.46.88-2.18,1.38a37.57,37.57,0,0,0-3.48,2.68,48.23,48.23,0,0,0-5.85,6A57.39,57.39,0,0,0,291,71.26a40.5,40.5,0,0,0-1.58,10.8c0,7.41,2.54,12.68,6.67,15.24l-14.68-8.46,0,0a19,19,0,0,1-8.66-16.37,39.92,39.92,0,0,1,1.45-10.31A57.16,57.16,0,0,1,285.06,41.2a47.55,47.55,0,0,1,5.85-6,35.91,35.91,0,0,1,3.48-2.68c.72-.5,1.45-1,2.18-1.38s1.25-.68,1.88-1a18.8,18.8,0,0,1,16.63.28h0l.41.23L316,31Z" style="fill:#407BFF"></path><path d="M281.37,88.84l0,0a19,19,0,0,1-8.66-16.37,39.92,39.92,0,0,1,1.45-10.31L291,71.26a40.5,40.5,0,0,0-1.58,10.8c0,7.41,2.54,12.68,6.67,15.24Z" style="opacity:0.1"></path><path d="M337.07,54.52c0,15.21-10.67,33.7-23.84,41.3-6.62,3.83-12.62,4.17-16.94,1.62l-.24-.14c-4.13-2.56-6.67-7.83-6.67-15.24,0-15.21,10.67-33.7,23.84-41.31,6.57-3.79,12.53-4.16,16.84-1.68S337.07,46.9,337.07,54.52Z" style="fill:#407BFF"></path><path d="M337.07,54.52c0,15.21-10.67,33.7-23.84,41.3-6.62,3.83-12.62,4.17-16.94,1.62l-.24-.14c-4.13-2.56-6.67-7.83-6.67-15.24,0-15.21,10.67-33.7,23.84-41.31,6.57-3.79,12.53-4.16,16.84-1.68S337.07,46.9,337.07,54.52Z" style="opacity:0.2"></path><path d="M410.18,50.59s-24.05,12.34-44.6,47.93a163.81,163.81,0,0,0-9.75,19.84c-10.31,25.31-9.46,42.75-9.46,42.75-7.17-17.56-16.08-35.74-30.95-49.66a226.26,226.26,0,0,0-18.29-15.29v0c-3.93-2.29-6.23-7.25-6.23-14.09a41.3,41.3,0,0,1,2.69-14,55,55,0,0,1,4.08-8.74c4.18-7.24,9.95-13.56,16.31-17.23,5.92-3.42,11.37-3.91,15.31-1.64v0a228.43,228.43,0,0,0,22.39,8.19C371.19,54.53,391.39,53.15,410.18,50.59Z" style="fill:#f0f0f0"></path><path d="M355.83,118.36c-10.31,25.31-9.46,42.75-9.46,42.75-7.17-17.56-16.08-35.74-30.95-49.66a226.26,226.26,0,0,0-18.29-15.29v0c-3.93-2.29-6.23-7.25-6.23-14.09a41.3,41.3,0,0,1,2.69-14C311.83,77.17,341.33,94,355.83,118.36Z" style="fill:#e0e0e0"></path><path d="M455.5,84.91c0,15.86-4.88,33.22-13,49.25h0c-10.42,20.53-26.14,38.86-43.74,49C367.41,201.28,342,186.61,342,150.43a96.31,96.31,0,0,1,3.75-25.65,135.19,135.19,0,0,1,34.38-58.27q3.33-3.27,6.84-6.15c1-.8,2-1.58,2.95-2.33h0q2.12-1.61,4.27-3.05c1.5-1,3-1.95,4.54-2.83C430.09,34.06,455.5,48.72,455.5,84.91Z" style="fill:#407BFF"></path><path d="M442.49,134.17c-10.42,20.53-26.14,38.86-43.74,49C367.41,201.28,342,186.61,342,150.43a96.31,96.31,0,0,1,3.75-25.65h0c2.12,4.68,9.74,11.36,13.15,6.68a86.87,86.87,0,0,0-3.29,22.75c0,10.4,2.32,18.79,6.7,24.28,3.74,4.68,8.88,7.06,15.27,7,6.21,0,13.43-2.28,20.88-6.57,15-8.64,28.73-24.17,38.49-41.76C437,137.21,438.92,138.86,442.49,134.17Z" style="opacity:0.1"></path><path d="M451.62,86.93c0,16-5.61,34-14.65,50.28-9.76,17.59-23.52,33.12-38.49,41.76-7.45,4.29-14.67,6.58-20.88,6.57-6.39,0-11.53-2.37-15.27-7-4.38-5.49-6.7-13.88-6.7-24.28a86.87,86.87,0,0,1,3.29-22.75c.8-2.94,1.74-5.89,2.81-8.83a126.37,126.37,0,0,1,6.69-15.19q.79-1.53,1.62-3c.91-1.67,1.86-3.33,2.85-5a127.54,127.54,0,0,1,11.19-15.74s.1-.11.14-.17a113.39,113.39,0,0,1,8.47-9.09q3.17-3,6.47-5.67c.92-.74,1.85-1.45,2.79-2.14q1.69-1.23,3.42-2.37c1.12-.73,2.25-1.42,3.38-2.08,7.47-4.32,14.69-6.58,20.9-6.59C443.41,55.61,451.62,67.33,451.62,86.93Z" style="fill:#407BFF"></path><path d="M451.62,86.93c0,16-5.61,34-14.65,50.28-9.76,17.59-23.52,33.12-38.49,41.76-7.45,4.29-14.67,6.58-20.88,6.57-6.39,0-11.53-2.37-15.27-7-4.38-5.49-6.7-13.88-6.7-24.28a86.87,86.87,0,0,1,3.29-22.75c.8-2.94,1.74-5.89,2.81-8.83a126.37,126.37,0,0,1,6.69-15.19q.79-1.53,1.62-3c.91-1.67,1.86-3.33,2.85-5a127.54,127.54,0,0,1,11.19-15.74s.1-.11.14-.17a113.39,113.39,0,0,1,8.47-9.09q3.17-3,6.47-5.67c.92-.74,1.85-1.45,2.79-2.14q1.69-1.23,3.42-2.37c1.12-.73,2.25-1.42,3.38-2.08,7.47-4.32,14.69-6.58,20.9-6.59C443.41,55.61,451.62,67.33,451.62,86.93Z" style="opacity:0.30000000000000004"></path><path d="M403.4,95.82,383.49,133c-5.59-2.1-15.06-5.46-22.77-7.43.32-1,.66-2,1-2.93a126.37,126.37,0,0,1,6.69-15.19q.79-1.53,1.62-3c.91-1.67,1.86-3.33,2.85-5a127.54,127.54,0,0,1,11.19-15.74s.1-.11.14-.17c.6-.71,1.2-1.42,1.81-2.11A129.35,129.35,0,0,0,403.4,95.82Z" style="fill:#e0e0e0"></path><path d="M385.15,132.9c-4.5,0-7.19-3.64-7.19-9.73V123c0-9.57,6.75-21.25,15-26l.17-.09a12.86,12.86,0,0,1,6.28-2c4.49,0,7.18,3.64,7.18,9.72v.19c0,9.57-6.74,21.25-15,26l-.16.09a13,13,0,0,1-6.28,2Z" style="fill:#f5f5f5"></path></g><g id="freepik--Device--inject-286"><path d="M253.84,104.9a4.57,4.57,0,0,0-4.51.43l-172,99.28A13.82,13.82,0,0,0,72.54,210l-8.12-4.69a13.82,13.82,0,0,1,4.84-5.36L241.2,100.64c1.8-1,3.43-1.08,4.67-.33h0Z" style="fill:#455a64"></path><path d="M64.67,364.47h0c-1.52-.85-2.48-2.86-2.48-5.72V213.42c0-.33,0-.66,0-1s0-.46.07-.69.05-.44.09-.66a4.3,4.3,0,0,1,.09-.47,14.2,14.2,0,0,1,.41-1.65c.06-.24.14-.48.22-.72s.24-.65.36-1c0,0,0-.07.05-.1.13-.32.26-.63.41-.93s.32-.65.49-1L72.54,210c-.18.33-.35.67-.52,1s-.25.56-.36.84a.69.69,0,0,0,0,.13c-.14.32-.26.65-.37,1s-.23.69-.32,1a7.38,7.38,0,0,0-.19.78,14.43,14.43,0,0,0-.41,3.36V363.43c0,2.89,1,4.92,2.52,5.76Z" style="fill:#263238"></path><path d="M249.33,105.33l-172,99.27c-3.9,2.26-7.06,8.3-7.06,13.5V363.43c0,5.2,3.16,7.59,7.06,5.34l172-99.27c3.9-2.25,7.06-8.3,7.06-13.5V110.67C256.39,105.47,253.23,103.08,249.33,105.33Z" style="fill:#37474f"></path><path d="M239.86,268.2l-153,88.34c-2,1.16-3.67-.08-3.67-2.77V212.9c0-2.7,1.64-5.83,3.67-7l153-88.33c2-1.17,3.66.07,3.66,2.76V261.2C243.52,263.9,241.88,267,239.86,268.2Z" style="fill:#407BFF"></path><path d="M239.86,268.2l-153,88.34c-2,1.16-3.67-.08-3.67-2.77V212.9c0-2.7,1.64-5.83,3.67-7l153-88.33c2-1.17,3.66.07,3.66,2.76V261.2C243.52,263.9,241.88,267,239.86,268.2Z" style="opacity:0.1"></path><path d="M79.12,291.17a5.66,5.66,0,0,1-2.36,4.51c-1.31.76-2.37,0-2.37-1.78a5.64,5.64,0,0,1,2.37-4.52C78.06,288.62,79.12,289.43,79.12,291.17Z" style="fill:#e0e0e0"></path><path d="M76.76,267.87h0a3.46,3.46,0,0,0-1.44,2.74v12.54c0,1.06.65,1.54,1.44,1.08h0a3.42,3.42,0,0,0,1.43-2.73V269C78.19,267.9,77.55,267.42,76.76,267.87Z" style="fill:#e0e0e0"></path><polygon points="228.74 135.93 106.87 206.29 106.87 344.93 228.74 274.62 228.74 135.93" style="fill:#fafafa"></polygon><polygon points="228.74 135.93 224.67 133.59 102.81 203.94 106.87 206.29 228.74 135.93" style="fill:#fff"></polygon><polygon points="102.81 203.94 106.87 206.29 106.87 344.93 102.81 347.27 102.81 203.94" style="fill:#e0e0e0"></polygon><path d="M121.64,226.23a9,9,0,0,1,.07,1.49,10,10,0,0,1-.07,1.57l-7.1,4.1a9,9,0,0,1-.07-1.49,11.63,11.63,0,0,1,.07-1.57l2.2-1.27V213.61l-1.83,1a8.78,8.78,0,0,1-.07-1.48,11.63,11.63,0,0,1,.07-1.57l6.14-3.55,5.84,11.11V207.74l-1.83,1.06a9,9,0,0,1-.07-1.49,11.35,11.35,0,0,1,.07-1.56l7-4a9,9,0,0,1,.07,1.49,9.88,9.88,0,0,1-.07,1.57L130,206v18.51l-3.41,2-6.74-12.67v13.5Z" style="fill:#455a64"></path><path d="M146,193.66V199a11,11,0,0,1-1.13.74,10.09,10.09,0,0,1-1.16.59V198l-5.53,3.18v5.63l2.64-1.53v-2.23a9.71,9.71,0,0,1,1.14-.75,4.94,4.94,0,0,1,1.1-.54v7.54a5.55,5.55,0,0,1-1.1.73,6.78,6.78,0,0,1-1.14.57v-2.32l-2.64,1.52v6.84l5.75-3.32v-2.87a11.06,11.06,0,0,1,1.17-.77,10,10,0,0,1,1.13-.55v5.92l-13.18,7.61a12.23,12.23,0,0,1-.07-1.49,13.42,13.42,0,0,1,.07-1.57l2.06-1.18V203l-1.83,1.06a10.52,10.52,0,0,1-.07-1.49c0-.89.07-1.57.07-1.57Z" style="fill:#455a64"></path><path d="M156.81,191.39l3.18-1.84,2.87,12.58L163,202s1.26-10.32,1.72-16.15L162.9,187s0-.52,0-1.56,0-1.49,0-1.49l6.24-3.6a10,10,0,0,1,.07,1.43,12.49,12.49,0,0,1-.07,1.62l-1.61.93c-.57,6.59-2.2,19.78-2.2,19.78l-4.67,2.7-2.36-10.4-2.36,13.13-4.68,2.69s-1.74-11-2.17-17.25l-1.61.93s0-.53,0-1.57,0-1.49,0-1.49l6.49-3.74a9.9,9.9,0,0,1,.07,1.42,12.78,12.78,0,0,1-.07,1.63l-1.84,1.06c.33,5.5,1.68,14.19,1.68,14.19l.16-.1Z" style="fill:#455a64"></path><path d="M180.38,179.49a8.94,8.94,0,0,1-1.21.79,8.41,8.41,0,0,1-1.31.66v-2.16s-.8-.37-2.34.52a5.73,5.73,0,0,0-2.7,4.43c0,1.07.25,2.06,1.28,1.89l3-.45c1.61-.22,4-.07,4,4s-2.09,7.44-6,9.67c-3.69,2.14-5.36.5-5.36.5v-4.09a13.35,13.35,0,0,1,1.21-.79,9.76,9.76,0,0,1,1.31-.66v2.29s.85.61,2.84-.54a5.34,5.34,0,0,0,2.89-4.6c0-1.56-1-2.06-2-1.91l-3.28.49c-2.27.33-3-1.39-3-4.05,0-3.6,2.63-7.66,5.77-9.47a5.4,5.4,0,0,1,4.86-.36Z" style="fill:#455a64"></path><polygon points="219.21 150.89 186.71 169.66 186.71 191.73 219.21 172.96 219.21 150.89" style="fill:#e0e0e0"></polygon><polygon points="219.21 185.81 114.61 246.2 114.61 240.49 219.21 180.1 219.21 185.81" style="fill:#407BFF"></polygon><polygon points="147.78 286.42 114.61 305.57 114.61 253.34 147.78 234.19 147.78 286.42" style="fill:#455a64"></polygon><path d="M142.2,245.73l-22,12.71c-.41.23-.74,0-.74-.55h0a1.74,1.74,0,0,1,.74-1.39l22-12.7c.4-.24.73,0,.73.55h0A1.74,1.74,0,0,1,142.2,245.73Z" style="fill:#fff"></path><path d="M142.2,255.1l-22,12.7c-.41.23-.74,0-.74-.55h0a1.76,1.76,0,0,1,.74-1.4l22-12.7c.4-.23.73,0,.73.55h0A1.76,1.76,0,0,1,142.2,255.1Z" style="fill:#fff"></path><path d="M142.2,264.46l-22,12.7c-.41.24-.74,0-.74-.55h0a1.72,1.72,0,0,1,.74-1.39l22-12.71c.4-.23.73,0,.73.56h0A1.75,1.75,0,0,1,142.2,264.46Z" style="fill:#fff"></path><path d="M142.2,273.82l-22,12.71c-.41.23-.74,0-.74-.55h0a1.74,1.74,0,0,1,.74-1.4l22-12.7c.4-.24.73,0,.73.55h0A1.74,1.74,0,0,1,142.2,273.82Z" style="fill:#fff"></path><path d="M142.2,283.19l-22,12.7c-.41.23-.74,0-.74-.55h0a1.76,1.76,0,0,1,.74-1.4l22-12.7c.4-.23.73,0,.73.55h0A1.76,1.76,0,0,1,142.2,283.19Z" style="fill:#fff"></path><path d="M142.2,250.2l-22,12.7c-.41.23-.74,0-.74-.55h0a1.74,1.74,0,0,1,.74-1.4l22-12.7c.4-.24.73,0,.73.55h0A1.77,1.77,0,0,1,142.2,250.2Z" style="fill:#fff"></path><path d="M142.2,259.56l-22,12.7c-.41.24-.74,0-.74-.55h0a1.76,1.76,0,0,1,.74-1.4l22-12.7c.4-.23.73,0,.73.55h0A1.76,1.76,0,0,1,142.2,259.56Z" style="fill:#fff"></path><path d="M142.2,268.92l-22,12.71c-.41.23-.74,0-.74-.56h0a1.72,1.72,0,0,1,.74-1.39l22-12.71c.4-.23.73,0,.73.56h0A1.75,1.75,0,0,1,142.2,268.92Z" style="fill:#fff"></path><path d="M142.2,278.29l-22,12.7c-.41.23-.74,0-.74-.55h0a1.74,1.74,0,0,1,.74-1.4l22-12.7c.4-.24.73,0,.73.55h0A1.77,1.77,0,0,1,142.2,278.29Z" style="fill:#fff"></path><polygon points="219.21 280.07 155.12 317.08 155.12 229.95 219.21 192.95 219.21 280.07" style="fill:#e0e0e0"></polygon><path d="M159.63,231.43l55.71-32.16c.78-.46,1.42-.09,1.42.81v45.73a3.14,3.14,0,0,1-1.42,2.45l-55.7,32.17c-.79.45-1.42.08-1.42-.82V233.88A3.13,3.13,0,0,1,159.63,231.43Z" style="fill:#407BFF"></path><path d="M159.63,231.43l55.71-32.16c.78-.46,1.42-.09,1.42.81v45.73a3.14,3.14,0,0,1-1.42,2.45l-55.7,32.17c-.79.45-1.42.08-1.42-.82V233.88A3.13,3.13,0,0,1,159.63,231.43Z" style="fill:#fff;opacity:0.8"></path><path d="M201.22,225.65l-9.31,16.47,6.54,8.48L176.84,232l-18.62,40.33v7.3c0,.9.63,1.27,1.42.82l55.7-32.17a3.14,3.14,0,0,0,1.42-2.45v-5.95Z" style="fill:#407BFF"></path><path d="M207.65,210.55c1.54-.89,2.79-.17,2.79,1.61a6.18,6.18,0,0,1-2.79,4.84c-1.54.89-2.79.17-2.79-1.61A6.18,6.18,0,0,1,207.65,210.55Z" style="fill:#407BFF"></path><polygon points="169.65 282.62 216.55 255.54 216.55 274.3 169.65 301.38 169.65 282.62" style="fill:#f0f0f0"></polygon><polygon points="165.38 303.84 114.61 333.15 114.61 314.4 165.38 285.08 165.38 303.84" style="fill:#407BFF"></polygon></g><g id="freepik--paper-planes--inject-286"><polygon points="425.12 240.84 467.42 213.75 486.05 219.74 425.12 240.84" style="fill:#407BFF"></polygon><polygon points="425.12 240.84 461.68 210.35 453.56 200.97 425.12 240.84" style="fill:#407BFF"></polygon><polygon points="461.68 210.35 461.68 217.43 425.12 240.84 461.68 210.35" style="fill:#407BFF"></polygon><polygon points="461.68 210.35 461.68 217.43 425.12 240.84 461.68 210.35" style="opacity:0.30000000000000004"></polygon><polygon points="369.5 239.97 400.7 219.99 414.45 224.4 369.5 239.97" style="fill:#407BFF"></polygon><polygon points="369.5 239.97 396.47 217.48 390.48 210.56 369.5 239.97" style="fill:#407BFF"></polygon><polygon points="396.47 217.48 396.47 222.7 369.5 239.97 396.47 217.48" style="fill:#407BFF"></polygon><polygon points="396.47 217.48 396.47 222.7 369.5 239.97 396.47 217.48" style="opacity:0.30000000000000004"></polygon><path d="M467,208.39a.75.75,0,0,1-.51-1.3,30.33,30.33,0,0,0,3.9-4.36.76.76,0,0,1,1.05-.16.74.74,0,0,1,.16,1.05,32.69,32.69,0,0,1-4.09,4.57A.76.76,0,0,1,467,208.39Zm6.62-8.71a.84.84,0,0,1-.34-.08.75.75,0,0,1-.32-1,31.05,31.05,0,0,0,2.14-5.44.74.74,0,0,1,.92-.52.76.76,0,0,1,.52.93,31.52,31.52,0,0,1-2.25,5.71A.74.74,0,0,1,473.62,199.68Zm3.18-10.47h-.09a.74.74,0,0,1-.65-.83,31.82,31.82,0,0,0,.22-3.78c0-.69,0-1.39-.06-2.07a.74.74,0,0,1,.7-.8.74.74,0,0,1,.79.7c.05.72.07,1.45.07,2.17a34.92,34.92,0,0,1-.23,4A.76.76,0,0,1,476.8,189.21Zm-.52-10.94a.75.75,0,0,1-.73-.59,36.28,36.28,0,0,0-1.69-5.63.75.75,0,0,1,1.4-.54,37.83,37.83,0,0,1,1.76,5.86.75.75,0,0,1-.58.88A.44.44,0,0,1,476.28,178.27ZM472.45,168a.76.76,0,0,1-.66-.39,41.08,41.08,0,0,0-3.18-5,.75.75,0,0,1,1.2-.9,44.16,44.16,0,0,1,3.3,5.13.75.75,0,0,1-.3,1A.77.77,0,0,1,472.45,168ZM466,159.13a.71.71,0,0,1-.54-.24,50.19,50.19,0,0,0-4.29-4.06.75.75,0,1,1,1-1.15,50.16,50.16,0,0,1,4.41,4.19.75.75,0,0,1-.55,1.26ZM457.68,152a.75.75,0,0,1-.42-.14c-1.48-1-3.05-2-4.67-2.93l-.37-.21a.75.75,0,0,1,.75-1.3l.37.21c1.65.94,3.26,2,4.77,3a.75.75,0,0,1-.43,1.37Zm-9.41-5.69a.69.69,0,0,1-.37-.1l-5.2-3a.75.75,0,1,1,.76-1.29l5.19,3a.75.75,0,0,1-.38,1.4Zm-9.52-5.51a.74.74,0,0,1-.37-.1l-5.19-3a.75.75,0,0,1-.28-1,.76.76,0,0,1,1-.28l5.19,3a.75.75,0,0,1-.38,1.4Zm-9.52-5.51a.75.75,0,0,1-.37-.11l-5.19-3a.76.76,0,0,1-.28-1,.75.75,0,0,1,1-.27l5.19,3a.75.75,0,0,1,.28,1A.77.77,0,0,1,429.23,135.26Zm-9.51-5.52a.75.75,0,0,1-.38-.1l-1.81-1a.75.75,0,0,1,.75-1.3l1.81,1a.76.76,0,0,1,.28,1A.75.75,0,0,1,419.72,129.74Z" style="fill:#e6e6e6"></path><path d="M402.82,217.57a.75.75,0,0,1-.48-1.32l3.73-3.08a.75.75,0,1,1,1,1.15l-3.73,3.08A.72.72,0,0,1,402.82,217.57Zm7.59-6.26a.74.74,0,0,1-.58-.27.76.76,0,0,1,.1-1.06l4.63-3.82a.75.75,0,0,1,.95,1.16l-4.62,3.82A.78.78,0,0,1,410.41,211.31Zm8.34-7.16a.78.78,0,0,1-.54-.23.75.75,0,0,1,0-1.06,58.25,58.25,0,0,0,4-4.33.77.77,0,0,1,1.06-.09.76.76,0,0,1,.09,1.06c-1.28,1.51-2.67,3-4.15,4.44A.73.73,0,0,1,418.75,204.15Zm7.14-8.34a.75.75,0,0,1-.42-.14.74.74,0,0,1-.19-1,48.6,48.6,0,0,0,3.09-5,.75.75,0,1,1,1.32.7,50.55,50.55,0,0,1-3.18,5.19A.75.75,0,0,1,425.89,195.81Zm5.23-9.65a.86.86,0,0,1-.27,0,.75.75,0,0,1-.43-1,39.9,39.9,0,0,0,1.74-5.62.75.75,0,1,1,1.46.33,40.73,40.73,0,0,1-1.8,5.83A.75.75,0,0,1,431.12,186.16Zm2.54-10.66h-.07a.74.74,0,0,1-.68-.81c.08-1,.12-1.92.12-2.87s0-2-.13-3a.74.74,0,0,1,.68-.81.76.76,0,0,1,.81.68c.09,1,.14,2.08.14,3.12s0,2-.13,3A.75.75,0,0,1,433.66,175.5Zm-.84-10.92a.76.76,0,0,1-.73-.57,32.36,32.36,0,0,0-1.9-5.54.75.75,0,1,1,1.37-.61,35.36,35.36,0,0,1,2,5.79.76.76,0,0,1-.55.91Zm-4.31-10.07a.76.76,0,0,1-.64-.34,36.51,36.51,0,0,0-3.53-4.7.75.75,0,0,1,1.13-1,39.4,39.4,0,0,1,3.67,4.88.74.74,0,0,1-.63,1.15Zm-7.14-8.32a.75.75,0,0,1-.5-.19,44.69,44.69,0,0,0-4.66-3.61.75.75,0,1,1,.85-1.24,47.64,47.64,0,0,1,4.81,3.73.75.75,0,0,1,.06,1.06A.73.73,0,0,1,421.37,146.19Zm-9-6.32a.77.77,0,0,1-.39-.11l-5.14-3.09a.75.75,0,1,1,.74-1.3c.42.24,3.76,2.25,5.17,3.11a.75.75,0,0,1-.38,1.39Z" style="fill:#e6e6e6"></path></g></svg>