<svg xmlns="http://www.w3.org/2000/svg" viewBox="0 0 500 500"><g id="freepik--background-simple--inject-148"><path d="M380,133.87s-21-30-56-47-91-23-133,23-15.74,33.77-64.37,50.89S45,200.87,67,240.87,175.92,288,156.46,297.45,66,321.87,95,362.87s134,15,173,16,16,25,50,28,79-33,92-86-62-76-45-100S403,175.87,380,133.87Z" style="fill:#407BFF"></path><path d="M380,133.87s-21-30-56-47-91-23-133,23-15.74,33.77-64.37,50.89S45,200.87,67,240.87,175.92,288,156.46,297.45,66,321.87,95,362.87s134,15,173,16,16,25,50,28,79-33,92-86-62-76-45-100S403,175.87,380,133.87Z" style="fill:#fff;opacity:0.7000000000000001"></path></g><g id="freepik--speech-bubble--inject-148"><path d="M354.19,119.21v8.44a2.82,2.82,0,0,1-2.82,2.82H126.63a2.82,2.82,0,0,1-2.82-2.82V86.88a2.82,2.82,0,0,1,2.82-2.82H351.37a2.82,2.82,0,0,1,2.82,2.82V98.14" style="fill:#fff;stroke:#2e353a;stroke-miterlimit:10"></path><line x1="354.19" y1="104.92" x2="354.19" y2="115.83" style="fill:#fff;stroke:#2e353a;stroke-miterlimit:10"></line><line x1="127.57" y1="112.15" x2="344.12" y2="112.15" style="fill:none;stroke:#2e353a;stroke-linecap:round;stroke-linejoin:round"></line><line x1="127.57" y1="116.36" x2="344.12" y2="116.36" style="fill:none;stroke:#2e353a;stroke-linecap:round;stroke-linejoin:round"></line><line x1="127.57" y1="120.57" x2="344.12" y2="120.57" style="fill:none;stroke:#2e353a;stroke-linecap:round;stroke-linejoin:round"></line><line x1="127.57" y1="124.78" x2="344.12" y2="124.78" style="fill:none;stroke:#2e353a;stroke-linecap:round;stroke-linejoin:round"></line><line x1="144.19" y1="90.34" x2="164.61" y2="90.34" style="fill:none;stroke:#2e353a;stroke-linecap:round;stroke-linejoin:round"></line><line x1="144.19" y1="94.55" x2="196.11" y2="94.55" style="fill:none;stroke:#2e353a;stroke-linecap:round;stroke-linejoin:round"></line><line x1="144.19" y1="98.76" x2="170.15" y2="98.76" style="fill:none;stroke:#2e353a;stroke-linecap:round;stroke-linejoin:round"></line><rect x="127.22" y="86.83" width="14.89" height="16.96" rx="1.9" style="fill:#407BFF"></rect><path d="M354.19,331V362.3a2.82,2.82,0,0,1-2.82,2.82H126.63a2.82,2.82,0,0,1-2.82-2.82V315.87a2.81,2.81,0,0,1,2.82-2.81H351.37a2.81,2.81,0,0,1,2.82,2.81v9.5" style="fill:#fff;stroke:#2e353a;stroke-miterlimit:10"></path><line x1="127.57" y1="341.14" x2="344.12" y2="341.14" style="fill:none;stroke:#2e353a;stroke-linecap:round;stroke-linejoin:round"></line><line x1="127.57" y1="345.35" x2="344.12" y2="345.35" style="fill:none;stroke:#2e353a;stroke-linecap:round;stroke-linejoin:round"></line><line x1="127.57" y1="349.56" x2="344.12" y2="349.56" style="fill:none;stroke:#2e353a;stroke-linecap:round;stroke-linejoin:round"></line><line x1="127.57" y1="353.77" x2="344.12" y2="353.77" style="fill:none;stroke:#2e353a;stroke-linecap:round;stroke-linejoin:round"></line><line x1="144.19" y1="319.33" x2="164.61" y2="319.33" style="fill:none;stroke:#2e353a;stroke-linecap:round;stroke-linejoin:round"></line><line x1="144.19" y1="323.54" x2="196.11" y2="323.54" style="fill:none;stroke:#2e353a;stroke-linecap:round;stroke-linejoin:round"></line><line x1="144.19" y1="327.75" x2="170.15" y2="327.75" style="fill:none;stroke:#2e353a;stroke-linecap:round;stroke-linejoin:round"></line><rect x="127.22" y="315.83" width="14.89" height="16.96" rx="1.9" style="fill:#407BFF"></rect><path d="M123.81,222.67v-59.1a2.81,2.81,0,0,1,2.82-2.81H351.37a2.81,2.81,0,0,1,2.82,2.81V285.4a2.81,2.81,0,0,1-2.82,2.81H126.63a2.81,2.81,0,0,1-2.82-2.81V247.12" style="fill:#fff;stroke:#2e353a;stroke-miterlimit:10"></path><line x1="123.81" y1="240.35" x2="123.81" y2="228.31" style="fill:#fff;stroke:#2e353a;stroke-miterlimit:10"></line><line x1="144.19" y1="167.03" x2="164.61" y2="167.03" style="fill:none;stroke:#2e353a;stroke-linecap:round;stroke-linejoin:round"></line><line x1="144.19" y1="171.24" x2="196.11" y2="171.24" style="fill:none;stroke:#2e353a;stroke-linecap:round;stroke-linejoin:round"></line><line x1="144.19" y1="175.45" x2="170.15" y2="175.45" style="fill:none;stroke:#2e353a;stroke-linecap:round;stroke-linejoin:round"></line><rect x="127.22" y="163.53" width="14.89" height="16.96" rx="1.9" style="fill:#407BFF"></rect><path d="M156.46,297.45a5.78,5.78,0,1,0-5.78,5.78A5.78,5.78,0,0,0,156.46,297.45Z" style="fill:#407BFF"></path><circle cx="166.73" cy="297.45" r="5.78" style="fill:#407BFF"></circle><path d="M188.57,297.45a5.78,5.78,0,1,0-5.78,5.78A5.78,5.78,0,0,0,188.57,297.45Z" style="fill:#407BFF"></path><path d="M156.46,138.17a5.78,5.78,0,1,0-5.78,5.78A5.78,5.78,0,0,0,156.46,138.17Z" style="fill:#407BFF"></path><path d="M172.52,138.17a5.79,5.79,0,1,0-5.79,5.78A5.78,5.78,0,0,0,172.52,138.17Z" style="fill:#407BFF"></path><path d="M188.57,138.17a5.78,5.78,0,1,0-5.78,5.78A5.78,5.78,0,0,0,188.57,138.17Z" style="fill:#407BFF"></path><path d="M156.46,374.52a5.78,5.78,0,1,0-5.78,5.78A5.78,5.78,0,0,0,156.46,374.52Z" style="fill:#407BFF"></path><path d="M172.52,374.52a5.79,5.79,0,1,0-5.79,5.78A5.78,5.78,0,0,0,172.52,374.52Z" style="fill:#407BFF"></path><path d="M188.57,374.52a5.78,5.78,0,1,0-5.78,5.78A5.78,5.78,0,0,0,188.57,374.52Z" style="fill:#407BFF"></path><rect x="143.15" y="181.88" width="199.75" height="94.91" style="fill:#407BFF"></rect><rect x="143.15" y="181.88" width="199.75" height="94.91" style="fill:#fff;opacity:0.5"></rect><rect x="143.15" y="181.88" width="199.75" height="94.91" style="fill:none;stroke:#2e353a;stroke-miterlimit:10"></rect><line x1="143.15" y1="276.79" x2="342.9" y2="181.88" style="fill:none;stroke:#2e353a;stroke-miterlimit:10"></line></g><g id="freepik--Plants--inject-148"><path d="M380.17,327.83s1.49-3.82,1.56-4.07c.73-2.94.42-9.05-2.46-10.84a4,4,0,0,0-5.69,1.83c-1.05,2.15-.31,5,.71,7C375.49,324.14,380.16,327.83,380.17,327.83Z" style="fill:#407BFF"></path><path d="M447.31,355.84c-2.37-2.43-8.4-1.42-11.12-.07-.23.12-3.69,2.36-3.64,2.4l.06,0c-1,.15-2,.33-3.09.54-2,.41-4.36.89-6.84,1.58a72.71,72.71,0,0,0-7.9,2.61,53,53,0,0,0-8.33,4.15l-.09.06c.65-.75,2.38-2.92,2.5-3.1,1.61-2.56,3.22-8.47,1.05-11.07a4,4,0,0,0-6,0c-1.67,1.72-1.86,4.66-1.52,6.9.39,2.52,3.41,7.15,3.65,7.52a71.37,71.37,0,0,0-7.59,5.68c-1.41,1.19-2.79,2.44-4.15,3.7.54-.67,1-1.27,1.07-1.36,1.61-2.56,3.22-8.47,1.05-11.07a4,4,0,0,0-6,0c-1.67,1.72-1.86,4.66-1.52,6.9s2.85,6.27,3.52,7.32L390.9,380c-2.48,2.36-4.95,4.73-7.44,7-.88.8-1.77,1.55-2.66,2.3.48-.6.87-1.1.93-1.19,1.61-2.56,3.22-8.46,1-11.06a4,4,0,0,0-6,0c-1.67,1.71-1.86,4.66-1.52,6.89s2.6,5.88,3.4,7.14c-.94.74-1.87,1.49-2.81,2.16-.66.45-1.25.93-1.93,1.34l-2,1.26c-1.28.76-2.6,1.55-3.88,2.25-.88.5-1.73.95-2.58,1.42.88-.78,2.58-2.34,2.7-2.49a15.48,15.48,0,0,0,3.22-7.18A4.18,4.18,0,0,0,372,389a4,4,0,0,0-1.62-5.75c-2.33-1.07-5.92.46-8.42,2.23.1-1.72.06-2.78.06-2.78l-.66.06.48-1.14c.32-.71.56-1.51.85-2.27.63-1.78,1.18-3.61,1.7-5.47,1.17.57,5.36,2.55,7.63,2.64s5.16-.45,6.67-2.3a4,4,0,0,0-.72-5.93c-2.83-1.87-8.51.41-10.87,2.3-.15.12-1.69,1.67-2.52,2.54.3-1.12.61-2.23.87-3.38.78-3.3,1.46-6.66,2.15-10,.21-1,.43-2.05.65-3.07.42.2,5.35,2.66,7.89,2.76,2.26.08,5.16-.45,6.67-2.3a4,4,0,0,0-.72-5.93c-2.83-1.87-8.51.41-10.87,2.3-.18.15-2.39,2.38-2.93,3,.49-2.25,1-4.49,1.58-6.68a71,71,0,0,1,2.89-8.7c.19.1,5.33,2.69,7.93,2.78,2.26.08,5.16-.44,6.68-2.3a4,4,0,0,0-.73-5.93c-2.83-1.86-8.51.41-10.87,2.31-.18.15-2.56,2.55-3,3,.07-.16.13-.34.19-.5a51.92,51.92,0,0,1,4.43-8.05c.93-1.42,1.9-2.73,2.87-4,.9.58,5.07,3.18,7.41,3.53s5.18.13,6.89-1.55a4,4,0,0,0-.07-6c-2.61-2.16-8.5-.52-11.06,1.1-.14.09-1.45,1.15-2.4,1.93l1.33-1.67c1.64-2,3.26-3.68,4.71-5.18.83-.84,1.6-1.59,2.33-2.28,1.18.1,6,.47,8.16-.29s4.66-2.27,5.4-4.55a4,4,0,0,0-2.81-5.27c-3.32-.72-7.79,3.45-9.31,6.07-.13.23-1.78,4-1.72,4h.07c-.71.65-1.46,1.36-2.27,2.15-1.49,1.47-3.15,3.15-4.84,5.09a71,71,0,0,0-5.14,6.54,51.73,51.73,0,0,0-4.66,8.05l-.05.11c.13-1,.38-3.76.37-4-.06-3-2-8.84-5.23-9.81a4,4,0,0,0-5,3.26c-.45,2.35,1,4.91,2.54,6.59,1.71,1.89,6.78,4.09,7.19,4.26a71.39,71.39,0,0,0-3.2,8.93c-.51,1.77-1,3.57-1.42,5.38.08-.86.14-1.63.14-1.73-.07-3-2-8.84-5.23-9.81a4,4,0,0,0-5,3.26c-.45,2.35,1,4.91,2.53,6.59s5.83,3.66,7,4.17c-.17.69-.34,1.39-.5,2.08-.76,3.34-1.51,6.68-2.35,9.93-.29,1.15-.62,2.27-.95,3.39.07-.76.12-1.41.12-1.5-.07-3-2-8.84-5.23-9.81a4,4,0,0,0-5,3.26c-.44,2.35,1,4.91,2.54,6.59s5.41,3.47,6.77,4.08c-.37,1.13-.74,2.27-1.15,3.35-.3.74-.53,1.47-.87,2.19l-.93,2.09c-.72.12-1.55.28-2.48.49-.25-3.05-1.39-6.78-3.71-7.88a4,4,0,0,0-5.44,2.47c-.8,2.26.26,5,1.51,6.9a5.69,5.69,0,0,0,.61.77,29.49,29.49,0,0,0-10.47,7.24c-8.4,9.38-7.77,23.64-7.77,23.64s11.9-.8,20.36-8.12c2.6-1.22,6-2.86,9.8-4.92,1.44-.76,3-1.61,4.52-2.5.41.51,3.76,4.65,6,5.78,2,1,4.87,1.76,7,.71a4,4,0,0,0,1.83-5.69c-1.79-2.88-7.9-3.19-10.83-2.46-.18.05-2,.72-3.15,1.17.63-.36,1.25-.71,1.9-1.1,1.28-.75,2.55-1.53,3.91-2.38l1.94-1.3c.66-.42,1.31-.95,2-1.42,1.5-1.14,3-2.37,4.43-3.63.66,1.12,3.06,5.08,4.91,6.41s4.55,2.48,6.84,1.76a4,4,0,0,0,2.67-5.34c-1.34-3.12-7.33-4.36-10.34-4.08-.19,0-2.33.46-3.51.73.87-.77,1.74-1.53,2.6-2.34,2.46-2.32,4.88-4.75,7.31-7.17.74-.74,1.49-1.47,2.24-2.2.23.4,3,5.17,5.06,6.65,1.84,1.32,4.55,2.49,6.83,1.77a4,4,0,0,0,2.67-5.34c-1.33-3.12-7.32-4.36-10.34-4.08-.23,0-3.31.67-4.08.87,1.64-1.61,3.3-3.2,5-4.71a69.78,69.78,0,0,1,7.21-5.65c.11.18,3,5.18,5.08,6.69,1.84,1.32,4.55,2.48,6.83,1.77a4,4,0,0,0,2.67-5.35c-1.33-3.12-7.32-4.35-10.34-4.07-.23,0-3.55.71-4.14.88.15-.1.29-.22.44-.31a52.16,52.16,0,0,1,8.13-4.28c1.56-.67,3.08-1.22,4.58-1.73.43,1,2.48,5.46,4.23,7s4.25,3,6.6,2.5a4,4,0,0,0,3.24-5c-1-3.24-6.8-5.13-9.83-5.18-.16,0-1.84.15-3.06.28l2-.65c2.46-.74,4.75-1.27,6.78-1.72,1.16-.25,2.22-.45,3.2-.63.94.74,4.73,3.69,7,4.26s5.14.68,7-.81A4,4,0,0,0,447.31,355.84Zm-86.51,46q-2.66,1.35-5,2.44a33,33,0,0,0,5.25-12.55l1.41.29c.14,2.55,2.16,7.08,2.43,7.67C363.5,400.49,362.12,401.22,360.8,401.88Z" style="fill:#407BFF"></path><path d="M423.41,358.61c2.24-2.05,5.35-7.31,3.94-10.39a4,4,0,0,0-5.75-1.62c-2.07,1.21-3,4-3.29,6.25-.31,2.64,1.55,8.29,1.56,8.3S423.22,358.79,423.41,358.61Z" style="fill:#407BFF"></path><path d="M325.4,333.43S308.12,351,308,372.67s17,39.39,17,39.39,17.28-17.53,17.37-39.24S325.4,333.43,325.4,333.43Z" style="fill:#407BFF"></path><path d="M287.44,383.1s-.11,14.27,8.62,23.34,23,9.51,23,9.51.1-14.27-8.63-23.34S287.44,383.1,287.44,383.1Z" style="fill:#407BFF"></path><g style="opacity:0.5"><path d="M380.17,327.83s1.49-3.82,1.56-4.07c.73-2.94.42-9.05-2.46-10.84a4,4,0,0,0-5.69,1.83c-1.05,2.15-.31,5,.71,7C375.49,324.14,380.16,327.83,380.17,327.83Z" style="fill:#fff"></path><path d="M447.31,355.84c-2.37-2.43-8.4-1.42-11.12-.07-.23.12-3.69,2.36-3.64,2.4l.06,0c-1,.15-2,.33-3.09.54-2,.41-4.36.89-6.84,1.58a72.71,72.71,0,0,0-7.9,2.61,53,53,0,0,0-8.33,4.15l-.09.06c.65-.75,2.38-2.92,2.5-3.1,1.61-2.56,3.22-8.47,1.05-11.07a4,4,0,0,0-6,0c-1.67,1.72-1.86,4.66-1.52,6.9.39,2.52,3.41,7.15,3.65,7.52a71.37,71.37,0,0,0-7.59,5.68c-1.41,1.19-2.79,2.44-4.15,3.7.54-.67,1-1.27,1.07-1.36,1.61-2.56,3.22-8.47,1.05-11.07a4,4,0,0,0-6,0c-1.67,1.72-1.86,4.66-1.52,6.9s2.85,6.27,3.52,7.32L390.9,380c-2.48,2.36-4.95,4.73-7.44,7-.88.8-1.77,1.55-2.66,2.3.48-.6.87-1.1.93-1.19,1.61-2.56,3.22-8.46,1-11.06a4,4,0,0,0-6,0c-1.67,1.71-1.86,4.66-1.52,6.89s2.6,5.88,3.4,7.14c-.94.74-1.87,1.49-2.81,2.16-.66.45-1.25.93-1.93,1.34l-2,1.26c-1.28.76-2.6,1.55-3.88,2.25-.88.5-1.73.95-2.58,1.42.88-.78,2.58-2.34,2.7-2.49a15.48,15.48,0,0,0,3.22-7.18A4.18,4.18,0,0,0,372,389a4,4,0,0,0-1.62-5.75c-2.33-1.07-5.92.46-8.42,2.23.1-1.72.06-2.78.06-2.78l-.66.06.48-1.14c.32-.71.56-1.51.85-2.27.63-1.78,1.18-3.61,1.7-5.47,1.17.57,5.36,2.55,7.63,2.64s5.16-.45,6.67-2.3a4,4,0,0,0-.72-5.93c-2.83-1.87-8.51.41-10.87,2.3-.15.12-1.69,1.67-2.52,2.54.3-1.12.61-2.23.87-3.38.78-3.3,1.46-6.66,2.15-10,.21-1,.43-2.05.65-3.07.42.2,5.35,2.66,7.89,2.76,2.26.08,5.16-.45,6.67-2.3a4,4,0,0,0-.72-5.93c-2.83-1.87-8.51.41-10.87,2.3-.18.15-2.39,2.38-2.93,3,.49-2.25,1-4.49,1.58-6.68a71,71,0,0,1,2.89-8.7c.19.1,5.33,2.69,7.93,2.78,2.26.08,5.16-.44,6.68-2.3a4,4,0,0,0-.73-5.93c-2.83-1.86-8.51.41-10.87,2.31-.18.15-2.56,2.55-3,3,.07-.16.13-.34.19-.5a51.92,51.92,0,0,1,4.43-8.05c.93-1.42,1.9-2.73,2.87-4,.9.58,5.07,3.18,7.41,3.53s5.18.13,6.89-1.55a4,4,0,0,0-.07-6c-2.61-2.16-8.5-.52-11.06,1.1-.14.09-1.45,1.15-2.4,1.93l1.33-1.67c1.64-2,3.26-3.68,4.71-5.18.83-.84,1.6-1.59,2.33-2.28,1.18.1,6,.47,8.16-.29s4.66-2.27,5.4-4.55a4,4,0,0,0-2.81-5.27c-3.32-.72-7.79,3.45-9.31,6.07-.13.23-1.78,4-1.72,4h.07c-.71.65-1.46,1.36-2.27,2.15-1.49,1.47-3.15,3.15-4.84,5.09a71,71,0,0,0-5.14,6.54,51.73,51.73,0,0,0-4.66,8.05l-.05.11c.13-1,.38-3.76.37-4-.06-3-2-8.84-5.23-9.81a4,4,0,0,0-5,3.26c-.45,2.35,1,4.91,2.54,6.59,1.71,1.89,6.78,4.09,7.19,4.26a71.39,71.39,0,0,0-3.2,8.93c-.51,1.77-1,3.57-1.42,5.38.08-.86.14-1.63.14-1.73-.07-3-2-8.84-5.23-9.81a4,4,0,0,0-5,3.26c-.45,2.35,1,4.91,2.53,6.59s5.83,3.66,7,4.17c-.17.69-.34,1.39-.5,2.08-.76,3.34-1.51,6.68-2.35,9.93-.29,1.15-.62,2.27-.95,3.39.07-.76.12-1.41.12-1.5-.07-3-2-8.84-5.23-9.81a4,4,0,0,0-5,3.26c-.44,2.35,1,4.91,2.54,6.59s5.41,3.47,6.77,4.08c-.37,1.13-.74,2.27-1.15,3.35-.3.74-.53,1.47-.87,2.19l-.93,2.09c-.72.12-1.55.28-2.48.49-.25-3.05-1.39-6.78-3.71-7.88a4,4,0,0,0-5.44,2.47c-.8,2.26.26,5,1.51,6.9a5.69,5.69,0,0,0,.61.77,29.49,29.49,0,0,0-10.47,7.24c-8.4,9.38-7.77,23.64-7.77,23.64s11.9-.8,20.36-8.12c2.6-1.22,6-2.86,9.8-4.92,1.44-.76,3-1.61,4.52-2.5.41.51,3.76,4.65,6,5.78,2,1,4.87,1.76,7,.71a4,4,0,0,0,1.83-5.69c-1.79-2.88-7.9-3.19-10.83-2.46-.18.05-2,.72-3.15,1.17.63-.36,1.25-.71,1.9-1.1,1.28-.75,2.55-1.53,3.91-2.38l1.94-1.3c.66-.42,1.31-.95,2-1.42,1.5-1.14,3-2.37,4.43-3.63.66,1.12,3.06,5.08,4.91,6.41s4.55,2.48,6.84,1.76a4,4,0,0,0,2.67-5.34c-1.34-3.12-7.33-4.36-10.34-4.08-.19,0-2.33.46-3.51.73.87-.77,1.74-1.53,2.6-2.34,2.46-2.32,4.88-4.75,7.31-7.17.74-.74,1.49-1.47,2.24-2.2.23.4,3,5.17,5.06,6.65,1.84,1.32,4.55,2.49,6.83,1.77a4,4,0,0,0,2.67-5.34c-1.33-3.12-7.32-4.36-10.34-4.08-.23,0-3.31.67-4.08.87,1.64-1.61,3.3-3.2,5-4.71a69.78,69.78,0,0,1,7.21-5.65c.11.18,3,5.18,5.08,6.69,1.84,1.32,4.55,2.48,6.83,1.77a4,4,0,0,0,2.67-5.35c-1.33-3.12-7.32-4.35-10.34-4.07-.23,0-3.55.71-4.14.88.15-.1.29-.22.44-.31a52.16,52.16,0,0,1,8.13-4.28c1.56-.67,3.08-1.22,4.58-1.73.43,1,2.48,5.46,4.23,7s4.25,3,6.6,2.5a4,4,0,0,0,3.24-5c-1-3.24-6.8-5.13-9.83-5.18-.16,0-1.84.15-3.06.28l2-.65c2.46-.74,4.75-1.27,6.78-1.72,1.16-.25,2.22-.45,3.2-.63.94.74,4.73,3.69,7,4.26s5.14.68,7-.81A4,4,0,0,0,447.31,355.84Zm-86.51,46q-2.66,1.35-5,2.44a33,33,0,0,0,5.25-12.55l1.41.29c.14,2.55,2.16,7.08,2.43,7.67C363.5,400.49,362.12,401.22,360.8,401.88Z" style="fill:#fff"></path><path d="M423.41,358.61c2.24-2.05,5.35-7.31,3.94-10.39a4,4,0,0,0-5.75-1.62c-2.07,1.21-3,4-3.29,6.25-.31,2.64,1.55,8.29,1.56,8.3S423.22,358.79,423.41,358.61Z" style="fill:#fff"></path><path d="M325.4,333.43S308.12,351,308,372.67s17,39.39,17,39.39,17.28-17.53,17.37-39.24S325.4,333.43,325.4,333.43Z" style="fill:#fff"></path><path d="M287.44,383.1s-.11,14.27,8.62,23.34,23,9.51,23,9.51.1-14.27-8.63-23.34S287.44,383.1,287.44,383.1Z" style="fill:#fff"></path></g><polygon points="336.28 392.35 335.72 391.65 325.56 399.62 325.64 382.07 339.76 369.57 339.16 368.9 325.64 380.86 325.73 361.59 335.24 353.35 334.65 352.67 325.73 360.39 325.85 333.43 324.95 333.43 324.78 373.15 313.59 356.79 312.85 357.3 324.7 374.63 324.77 374.58 324.7 391.08 311.29 379.02 310.68 379.69 324.69 392.29 324.7 392.28 324.61 412.06 325.51 412.06 325.56 400.76 336.28 392.35" style="fill:#fff"></polygon><polygon points="362.3 383.02 361.63 382.42 346.68 399.14 348.04 388.34 347.15 388.22 345.63 400.3 345.64 400.3 339.62 407.02 338.49 397.05 337.6 397.15 338.82 407.92 331.24 416.4 331.9 417 336.21 412.19 344.01 412.65 344.06 411.76 336.98 411.33 343.45 404.1 354.29 404.11 354.29 403.21 344.25 403.2 351.36 395.25 358.57 395.34 358.58 394.44 352.16 394.36 362.3 383.02" style="fill:#fff"></polygon><polygon points="315.95 403.24 315.06 403.12 314.1 410.15 307.38 403.17 308.2 392.35 307.3 392.28 306.54 402.3 299.14 394.61 299.77 387.43 298.87 387.35 298.31 393.75 287.76 382.79 287.12 383.41 302.67 399.57 292 397.4 291.82 398.28 303.75 400.7 303.75 400.69 310.01 407.19 299.97 407.58 300.01 408.48 310.84 408.06 318.73 416.26 319.38 415.64 314.9 410.98 315.95 403.24" style="fill:#fff"></polygon></g></svg>